<svg xmlns="http://www.w3.org/2000/svg" version="1.1" xmlns:xlink="http://www.w3.org/1999/xlink" xmlns:svgjs="http://svgjs.dev/svgjs" width="1500" height="1500" viewBox="0 0 1500 1500"><rect width="1500" height="1500" fill="#ffffff"></rect><g transform="matrix(0.6666666666666666,0,0,0.6666666666666666,249.39393939393938,606.2324281947883)"><svg viewBox="0 0 396 114" data-background-color="#000000" preserveAspectRatio="xMidYMid meet" height="431" width="1500" xmlns="http://www.w3.org/2000/svg" xmlns:xlink="http://www.w3.org/1999/xlink"><g id="tight-bounds" transform="matrix(1,0,0,1,0.2400000000000091,0.04003428930676023)"><svg viewBox="0 0 395.52 113.91993142138648" height="113.91993142138648" width="395.52"><g><svg viewBox="0 0 603.489026188751 173.8203592156701" height="113.91993142138648" width="395.52"><g transform="matrix(1,0,0,1,207.96902618875112,50.747389899138476)"><svg viewBox="0 0 395.52 72.32557941739314" height="72.32557941739314" width="395.52"><g id="textblocktransform"><svg viewBox="0 0 395.52 72.32557941739314" height="72.32557941739314" width="395.52" id="textblock"><g><svg viewBox="0 0 395.52 72.32557941739314" height="72.32557941739314" width="395.52"><g transform="matrix(1,0,0,1,0,0)"><svg width="395.52" viewBox="3.8 -33.4 235.13 43" height="72.32557941739314" data-palette-color="url(#3806ae80-af5b-4b76-9ae1-39db9e295d49)"><g class="wordmark-text-0" data-fill-palette-color="primary" id="text-0"></g></svg></g></svg></g></svg></g></svg></g><g><svg viewBox="0 0 173.8203592156701 173.8203592156701" height="173.8203592156701" width="173.8203592156701"><g><svg></svg></g><g id="icon-0"><svg viewBox="0 0 173.8203592156701 173.8203592156701" height="173.8203592156701" width="173.8203592156701"><g></g><g transform="matrix(1,0,0,1,47.21540829736234,38.70938587368961)"><svg viewBox="0 0 79.38954262094542 96.40158746829087" height="96.40158746829087" width="79.38954262094542"><g><svg xmlns:dc="http://purl.org/dc/elements/1.1/" xmlns:cc="http://creativecommons.org/ns#" xmlns:rdf="http://www.w3.org/1999/02/22-rdf-syntax-ns#" xmlns:svg="http://www.w3.org/2000/svg" xmlns="http://www.w3.org/2000/svg" xmlns:sodipodi="http://sodipodi.sourceforge.net/DTD/sodipodi-0.dtd" xmlns:inkscape="http://www.inkscape.org/namespaces/inkscape" version="1.1" x="0" y="0" viewBox="7.5 5.25 21 25.5" height="96.40158746829087" width="79.38954262094542" class="icon-dxe-0" data-fill-palette-color="accent" id="dxe-0"></svg></g></svg></g></svg></g></svg></g></svg></g><defs></defs><mask id="9fc627f5-be95-4507-b65c-c8e76dba19da"><g id="SvgjsG5528"><svg viewBox="0 0 395.52 113.91993142138648" height="113.91993142138648" width="395.52"><g><svg viewBox="0 0 603.489026188751 173.8203592156701" height="113.91993142138648" width="395.52"><g transform="matrix(1,0,0,1,207.96902618875112,50.747389899138476)"><svg viewBox="0 0 395.52 72.32557941739314" height="72.32557941739314" width="395.52"><g id="SvgjsG5527"><svg viewBox="0 0 395.52 72.32557941739314" height="72.32557941739314" width="395.52" id="SvgjsSvg5526"><g><svg viewBox="0 0 395.52 72.32557941739314" height="72.32557941739314" width="395.52"><g transform="matrix(1,0,0,1,0,0)"><svg width="395.52" viewBox="3.8 -33.4 235.13 43" height="72.32557941739314" data-palette-color="url(#3806ae80-af5b-4b76-9ae1-39db9e295d49)"><g class="wordmark-text-0" data-fill-palette-color="primary" id="SvgjsG5525"><path d="M17.25 0.6L17.25 0.6Q10 0.6 6.9-3.03 3.8-6.65 3.8-13.95L3.8-13.95 3.8-33.4 8.5-33.4 8.5-13.6Q8.5-8.65 10.48-6.05 12.45-3.45 17.25-3.45L17.25-3.45Q22.05-3.45 24.03-6.05 26-8.65 26-13.6L26-13.6 26-33.4 30.7-33.4 30.7-13.95Q30.7-6.65 27.63-3.03 24.55 0.6 17.25 0.6ZM46.45 0.6L46.45 0.6Q44.3 0.6 42.22-0.08 40.15-0.75 38.52-2.13 36.9-3.5 36.05-5.6L36.05-5.6 40.1-7.1Q40.65-4.9 42.52-3.93 44.4-2.95 46.45-2.95L46.45-2.95Q47.95-2.95 49.27-3.4 50.6-3.85 51.45-4.7 52.3-5.55 52.3-6.65L52.3-6.65Q52.3-8.7 50.67-9.55 49.05-10.4 46.8-10.85L46.8-10.85 43.35-11.55Q41.55-11.95 40-12.68 38.45-13.4 37.5-14.75 36.55-16.1 36.55-18.35L36.55-18.35Q36.55-20.6 37.95-22.13 39.35-23.65 41.52-24.45 43.7-25.25 46.1-25.25L46.1-25.25Q49.05-25.25 51.67-24.03 54.3-22.8 55.4-20.2L55.4-20.2 51.45-18.75Q50.8-20.25 49.17-20.98 47.55-21.7 45.8-21.7L45.8-21.7Q43.9-21.7 42.35-20.85 40.8-20 40.8-18.4L40.8-18.4Q40.8-16.8 42.12-16.07 43.45-15.35 45.4-14.95L45.4-14.95 48.65-14.3Q50.65-13.9 52.45-13.15 54.25-12.4 55.4-10.93 56.55-9.45 56.55-6.8L56.55-6.8Q56.55-4.45 55.1-2.8 53.65-1.15 51.35-0.28 49.05 0.6 46.45 0.6ZM68.5 0.6L68.5 0.6Q66.14 0.6 64.2-0.25 62.25-1.1 61.09-2.7 59.95-4.3 59.95-6.55L59.95-6.55Q59.95-9.5 62.02-11.2 64.09-12.9 67.87-13.83 71.65-14.75 76.7-15.3L76.7-15.3Q76.8-18.45 75.45-20.15 74.09-21.85 71.09-21.85L71.09-21.85Q68.84-21.85 67.42-20.83 66-19.8 65.59-18L65.59-18 61.55-19.2Q62.55-22.05 65.12-23.63 67.7-25.2 71.05-25.2L71.05-25.2Q76.2-25.2 78.57-22.78 80.95-20.35 80.95-15.15L80.95-15.15 80.95-9.35Q80.95-6.25 81.2-4 81.45-1.75 81.8 0L81.8 0 77.95 0 76.95-3.4Q75.84-1.55 73.8-0.48 71.75 0.6 68.5 0.6ZM69.4-2.75L69.4-2.75Q71.34-2.75 73.09-3.45 74.84-4.15 75.95-5.83 77.05-7.5 77.05-10.4L77.05-10.4 77.05-11.95Q73.25-11.55 70.45-10.98 67.65-10.4 66.12-9.38 64.59-8.35 64.59-6.65L64.59-6.65Q64.59-4.9 65.87-3.83 67.14-2.75 69.4-2.75ZM98.04 9.6L98.04 9.6Q96.04 9.6 94.07 9.03 92.09 8.45 90.57 7.15 89.04 5.85 88.39 3.8L88.39 3.8 92.59 2.65Q93.29 4.6 94.89 5.25 96.49 5.9 98.04 5.9L98.04 5.9Q101.89 5.9 103.27 4.05 104.64 2.2 104.64-1.4L104.64-1.4 104.64-4.7Q103.49-2.75 101.59-1.6 99.69-0.45 96.74-0.45L96.74-0.45Q93.99-0.45 91.59-1.88 89.19-3.3 87.72-6.08 86.24-8.85 86.24-12.8L86.24-12.8Q86.24-16.8 87.72-19.55 89.19-22.3 91.59-23.75 93.99-25.2 96.74-25.2L96.74-25.2Q99.69-25.2 101.59-24.03 103.49-22.85 104.64-20.9L104.64-20.9 105.79-24.8 108.84-24.8 108.84-2.35Q108.84 3.55 106.47 6.58 104.09 9.6 98.04 9.6ZM97.79-3.95L97.79-3.95Q99.69-3.95 101.27-4.85 102.84-5.75 103.82-7.7 104.79-9.65 104.79-12.8L104.79-12.8Q104.79-15.95 103.82-17.9 102.84-19.85 101.27-20.73 99.69-21.6 97.79-21.6L97.79-21.6Q94.74-21.6 92.77-19.33 90.79-17.05 90.79-12.8L90.79-12.8Q90.79-8.55 92.77-6.25 94.74-3.95 97.79-3.95ZM126.39 0.6L126.39 0.6Q122.49 0.6 119.79-1.13 117.09-2.85 115.67-5.78 114.24-8.7 114.24-12.35L114.24-12.35Q114.24-16.3 115.84-19.18 117.44-22.05 120.17-23.63 122.89-25.2 126.29-25.2L126.29-25.2Q129.24-25.2 131.49-24.03 133.74-22.85 135.22-20.88 136.69-18.9 137.37-16.4 138.04-13.9 137.84-11.25L137.84-11.25 118.74-11.25Q118.84-8.15 120.12-6.35 121.39-4.55 123.14-3.83 124.89-3.1 126.39-3.1L126.39-3.1Q128.49-3.1 129.91-3.78 131.34-4.45 132.19-5.55L132.19-5.55 136.24-4.35Q134.89-2.2 132.39-0.8 129.89 0.6 126.39 0.6ZM118.79-14.6L118.79-14.6 133.39-14.6Q133.39-16.35 132.52-17.95 131.64-19.55 130.06-20.58 128.49-21.6 126.29-21.6L126.29-21.6Q124.44-21.6 122.79-20.9 121.14-20.2 120.06-18.65 118.99-17.1 118.79-14.6ZM147.79 0L143.09 0 143.09-33.4 164.79-33.4 164.79-29.35 147.79-29.35 147.79-19.2 164.79-19.2 164.79-15.15 147.79-15.15 147.79 0ZM177.89 0L176.04 0Q173.69 0 172.41-0.48 171.14-0.95 170.66-2.3 170.19-3.65 170.19-6.2L170.19-6.2 170.19-33.35 174.39-33.35 174.39-6.9Q174.39-5 174.79-4.35 175.19-3.7 176.94-3.7L176.94-3.7 177.89-3.7 177.89 0ZM192.43 0.6L192.43 0.6Q190.28 0.6 188.18-0.15 186.08-0.9 184.36-2.48 182.63-4.05 181.58-6.5 180.53-8.95 180.53-12.3L180.53-12.3Q180.53-15.65 181.58-18.1 182.63-20.55 184.36-22.13 186.08-23.7 188.18-24.45 190.28-25.2 192.43-25.2L192.43-25.2Q194.58-25.2 196.71-24.45 198.83-23.7 200.56-22.13 202.28-20.55 203.31-18.1 204.33-15.65 204.33-12.3L204.33-12.3Q204.33-8.95 203.31-6.5 202.28-4.05 200.56-2.48 198.83-0.9 196.71-0.15 194.58 0.6 192.43 0.6ZM192.43-3.1L192.43-3.1Q194.23-3.1 195.93-4.08 197.63-5.05 198.73-7.08 199.83-9.1 199.83-12.3L199.83-12.3Q199.83-15.5 198.73-17.53 197.63-19.55 195.93-20.53 194.23-21.5 192.43-21.5L192.43-21.5Q190.68-21.5 188.96-20.53 187.23-19.55 186.13-17.53 185.03-15.5 185.03-12.3L185.03-12.3Q185.03-9.1 186.13-7.08 187.23-5.05 188.96-4.08 190.68-3.1 192.43-3.1ZM217.18 0L213.38 0 206.23-24.8 210.73-24.8 215.48-6.45 220.43-24.8 224.78-24.8 229.68-6.45 234.43-24.8 238.93-24.8 231.83 0 227.98 0 222.58-19.95 217.18 0Z" fill="white"></path></g></svg></g></svg></g></svg></g></svg></g><g><svg viewBox="0 0 173.8203592156701 173.8203592156701" height="173.8203592156701" width="173.8203592156701"><g><svg></svg></g><g id="SvgjsG5524"><svg viewBox="0 0 173.8203592156701 173.8203592156701" height="173.8203592156701" width="173.8203592156701"><g><path d="M0 86.91c0-47.999 38.911-86.91 86.91-86.91 47.999 0 86.91 38.911 86.91 86.91 0 47.999-38.911 86.91-86.91 86.91-47.999 0-86.91-38.911-86.91-86.91zM86.91 167.298c44.397 0 80.388-35.991 80.388-80.388 0-44.397-35.991-80.388-80.388-80.388-44.397 0-80.388 35.991-80.388 80.388 0 44.397 35.991 80.388 80.388 80.388z" fill="black" stroke="transparent"></path></g><g transform="matrix(1,0,0,1,47.21540829736234,38.70938587368961)"><svg viewBox="0 0 79.38954262094542 96.40158746829087" height="96.40158746829087" width="79.38954262094542"><g><svg xmlns:dc="http://purl.org/dc/elements/1.1/" xmlns:cc="http://creativecommons.org/ns#" xmlns:rdf="http://www.w3.org/1999/02/22-rdf-syntax-ns#" xmlns:svg="http://www.w3.org/2000/svg" xmlns="http://www.w3.org/2000/svg" xmlns:sodipodi="http://sodipodi.sourceforge.net/DTD/sodipodi-0.dtd" xmlns:inkscape="http://www.inkscape.org/namespaces/inkscape" version="1.1" x="0" y="0" viewBox="7.5 5.25 21 25.5" height="96.40158746829087" width="79.38954262094542" class="icon-dxe-0" data-fill-palette-color="accent" id="SvgjsSvg5523"><g transform="translate(0,4)" fill="black"><path d="M7.5 5.25V12.25H10.5V23.75H7.5V30.75H14.5V23.75H11.5V12.25H14.5V9.25H22C22.933 9.25 23.588 9.452 23.969 9.719 24.349 9.985 24.5 10.288 24.5 10.75V22.375L23.344 21.219 22.656 21.906 24.5 23.75H21.5V30.75H28.5V23.75H25.5L27.344 21.906 26.656 21.22 25.5 22.375V10.75C25.5 10.01 25.15 9.308 24.531 8.875S23.067 8.25 22 8.25H14.5V5.25z" transform="translate(0,-4)" fill="black" fill-opacity="1" fill-rule="evenodd" stroke="none" marker="none" visibility="visible" display="inline" overflow="visible" color="url(#9ac7a3ae-6ebc-4398-a5e9-f4084477648a)" enable-background="accumulate"></path></g></svg></g></svg></g></svg></g></svg></g></svg></g><defs><mask></mask></defs></svg><rect width="395.52" height="113.91993142138648" fill="black" stroke="none" visibility="hidden"></rect></g></mask><linearGradient x1="0" x2="1" y1="0.548" y2="0.55" id="3806ae80-af5b-4b76-9ae1-39db9e295d49"><stop stop-color="#ff6cab" offset="0"></stop><stop stop-color="#7366ff" offset="1"></stop></linearGradient><rect width="395.52" height="113.91993142138648" fill="#000000" mask="url(#9fc627f5-be95-4507-b65c-c8e76dba19da)" data-fill-palette-color="primary"></rect><mask id="0607a897-a6a2-4941-a16f-5754e0b964c7"><g id="SvgjsG5553"><svg viewBox="0 0 395.52 113.91993142138648" height="113.91993142138648" width="395.52"><g><svg viewBox="0 0 603.489026188751 173.8203592156701" height="113.91993142138648" width="395.52"><g transform="matrix(1,0,0,1,207.96902618875112,50.747389899138476)"><svg viewBox="0 0 395.52 72.32557941739314" height="72.32557941739314" width="395.52"><g id="SvgjsG5552"><svg viewBox="0 0 395.52 72.32557941739314" height="72.32557941739314" width="395.52" id="SvgjsSvg5551"><g><svg viewBox="0 0 395.52 72.32557941739314" height="72.32557941739314" width="395.52"><g transform="matrix(1,0,0,1,0,0)"><svg width="395.52" viewBox="3.8 -33.4 235.13 43" height="72.32557941739314" data-palette-color="url(#3806ae80-af5b-4b76-9ae1-39db9e295d49)"><g class="wordmark-text-0" data-fill-palette-color="primary" id="SvgjsG5550"></g></svg></g></svg></g></svg></g></svg></g><g><svg viewBox="0 0 173.8203592156701 173.8203592156701" height="173.8203592156701" width="173.8203592156701"><g><svg></svg></g><g id="SvgjsG5549"><svg viewBox="0 0 173.8203592156701 173.8203592156701" height="173.8203592156701" width="173.8203592156701"><g><path d="M0 86.91c0-47.999 38.911-86.91 86.91-86.91 47.999 0 86.91 38.911 86.91 86.91 0 47.999-38.911 86.91-86.91 86.91-47.999 0-86.91-38.911-86.91-86.91zM86.91 167.298c44.397 0 80.388-35.991 80.388-80.388 0-44.397-35.991-80.388-80.388-80.388-44.397 0-80.388 35.991-80.388 80.388 0 44.397 35.991 80.388 80.388 80.388z" fill="white" stroke="transparent"></path></g><g transform="matrix(1,0,0,1,47.21540829736234,38.70938587368961)"><svg viewBox="0 0 79.38954262094542 96.40158746829087" height="96.40158746829087" width="79.38954262094542"><g><svg xmlns:dc="http://purl.org/dc/elements/1.1/" xmlns:cc="http://creativecommons.org/ns#" xmlns:rdf="http://www.w3.org/1999/02/22-rdf-syntax-ns#" xmlns:svg="http://www.w3.org/2000/svg" xmlns="http://www.w3.org/2000/svg" xmlns:sodipodi="http://sodipodi.sourceforge.net/DTD/sodipodi-0.dtd" xmlns:inkscape="http://www.inkscape.org/namespaces/inkscape" version="1.1" x="0" y="0" viewBox="7.5 5.25 21 25.5" height="96.40158746829087" width="79.38954262094542" class="icon-dxe-0" data-fill-palette-color="accent" id="SvgjsSvg5548"><g transform="translate(0,4)" fill="white"><path d="M7.5 5.25V12.25H10.5V23.75H7.5V30.75H14.5V23.75H11.5V12.25H14.5V9.25H22C22.933 9.25 23.588 9.452 23.969 9.719 24.349 9.985 24.5 10.288 24.5 10.75V22.375L23.344 21.219 22.656 21.906 24.5 23.75H21.5V30.75H28.5V23.75H25.5L27.344 21.906 26.656 21.22 25.5 22.375V10.75C25.5 10.01 25.15 9.308 24.531 8.875S23.067 8.25 22 8.25H14.5V5.25z" transform="translate(0,-4)" fill="white" fill-opacity="1" fill-rule="evenodd" stroke="none" marker="none" visibility="visible" display="inline" overflow="visible" color="url(#9ac7a3ae-6ebc-4398-a5e9-f4084477648a)" enable-background="accumulate"></path></g></svg></g></svg></g></svg></g></svg></g></svg></g><defs><mask></mask></defs><mask><g id="SvgjsG5547"><svg viewBox="0 0 395.52 113.91993142138648" height="113.91993142138648" width="395.52"><g><svg viewBox="0 0 603.489026188751 173.8203592156701" height="113.91993142138648" width="395.52"><g transform="matrix(1,0,0,1,207.96902618875112,50.747389899138476)"><svg viewBox="0 0 395.52 72.32557941739314" height="72.32557941739314" width="395.52"><g id="SvgjsG5546"><svg viewBox="0 0 395.52 72.32557941739314" height="72.32557941739314" width="395.52" id="SvgjsSvg5545"><g><svg viewBox="0 0 395.52 72.32557941739314" height="72.32557941739314" width="395.52"><g transform="matrix(1,0,0,1,0,0)"><svg width="395.52" viewBox="3.8 -33.4 235.13 43" height="72.32557941739314" data-palette-color="url(#3806ae80-af5b-4b76-9ae1-39db9e295d49)"><g class="wordmark-text-0" data-fill-palette-color="primary" id="SvgjsG5544"><path d="M17.25 0.6L17.25 0.6Q10 0.6 6.9-3.03 3.8-6.65 3.8-13.95L3.8-13.95 3.8-33.4 8.5-33.4 8.5-13.6Q8.5-8.65 10.48-6.05 12.45-3.45 17.25-3.45L17.25-3.45Q22.05-3.45 24.03-6.05 26-8.65 26-13.6L26-13.6 26-33.4 30.7-33.4 30.7-13.95Q30.7-6.65 27.63-3.03 24.55 0.6 17.25 0.6ZM46.45 0.6L46.45 0.6Q44.3 0.6 42.22-0.08 40.15-0.75 38.52-2.13 36.9-3.5 36.05-5.6L36.05-5.6 40.1-7.1Q40.65-4.9 42.52-3.93 44.4-2.95 46.45-2.95L46.45-2.95Q47.95-2.95 49.27-3.4 50.6-3.85 51.45-4.7 52.3-5.55 52.3-6.65L52.3-6.65Q52.3-8.7 50.67-9.55 49.05-10.4 46.8-10.85L46.8-10.85 43.35-11.55Q41.55-11.95 40-12.68 38.45-13.4 37.5-14.75 36.55-16.1 36.55-18.35L36.55-18.35Q36.55-20.6 37.95-22.13 39.35-23.65 41.52-24.45 43.7-25.25 46.1-25.25L46.1-25.25Q49.05-25.25 51.67-24.03 54.3-22.8 55.4-20.2L55.4-20.2 51.45-18.75Q50.8-20.25 49.17-20.98 47.55-21.7 45.8-21.7L45.8-21.7Q43.9-21.7 42.35-20.85 40.8-20 40.8-18.4L40.8-18.4Q40.8-16.8 42.12-16.07 43.45-15.35 45.4-14.95L45.4-14.95 48.65-14.3Q50.65-13.9 52.45-13.15 54.25-12.4 55.4-10.93 56.55-9.45 56.55-6.8L56.55-6.8Q56.55-4.45 55.1-2.8 53.65-1.15 51.35-0.28 49.05 0.6 46.45 0.6ZM68.5 0.6L68.5 0.6Q66.14 0.6 64.2-0.25 62.25-1.1 61.09-2.7 59.95-4.3 59.95-6.55L59.95-6.55Q59.95-9.5 62.02-11.2 64.09-12.9 67.87-13.83 71.65-14.75 76.7-15.3L76.7-15.3Q76.8-18.45 75.45-20.15 74.09-21.85 71.09-21.85L71.09-21.85Q68.84-21.85 67.42-20.83 66-19.8 65.59-18L65.59-18 61.55-19.2Q62.55-22.05 65.12-23.63 67.7-25.2 71.05-25.2L71.05-25.2Q76.2-25.2 78.57-22.78 80.95-20.35 80.95-15.15L80.95-15.15 80.95-9.35Q80.95-6.25 81.2-4 81.45-1.75 81.8 0L81.8 0 77.95 0 76.95-3.4Q75.84-1.55 73.8-0.48 71.75 0.6 68.5 0.6ZM69.4-2.75L69.4-2.75Q71.34-2.75 73.09-3.45 74.84-4.15 75.95-5.83 77.05-7.5 77.05-10.4L77.05-10.4 77.05-11.95Q73.25-11.55 70.45-10.98 67.65-10.4 66.12-9.38 64.59-8.35 64.59-6.65L64.59-6.65Q64.59-4.9 65.87-3.83 67.14-2.75 69.4-2.75ZM98.04 9.6L98.04 9.6Q96.04 9.6 94.07 9.03 92.09 8.45 90.57 7.15 89.04 5.85 88.39 3.8L88.39 3.8 92.59 2.65Q93.29 4.6 94.89 5.25 96.49 5.9 98.04 5.9L98.04 5.9Q101.89 5.9 103.27 4.05 104.64 2.2 104.64-1.4L104.64-1.4 104.64-4.7Q103.49-2.75 101.59-1.6 99.69-0.45 96.74-0.45L96.74-0.45Q93.99-0.45 91.59-1.88 89.19-3.3 87.72-6.08 86.24-8.85 86.24-12.8L86.24-12.8Q86.24-16.8 87.72-19.55 89.19-22.3 91.59-23.75 93.99-25.2 96.74-25.2L96.74-25.2Q99.69-25.2 101.59-24.03 103.49-22.85 104.64-20.9L104.64-20.9 105.79-24.8 108.84-24.8 108.84-2.35Q108.84 3.55 106.47 6.58 104.09 9.6 98.04 9.6ZM97.79-3.95L97.79-3.95Q99.69-3.95 101.27-4.85 102.84-5.75 103.82-7.7 104.79-9.65 104.79-12.8L104.79-12.8Q104.79-15.95 103.82-17.9 102.84-19.85 101.27-20.73 99.69-21.6 97.79-21.6L97.79-21.6Q94.74-21.6 92.77-19.33 90.79-17.05 90.79-12.8L90.79-12.8Q90.79-8.55 92.77-6.25 94.74-3.95 97.79-3.95ZM126.39 0.6L126.39 0.6Q122.49 0.6 119.79-1.13 117.09-2.85 115.67-5.78 114.24-8.7 114.24-12.35L114.24-12.35Q114.24-16.3 115.84-19.18 117.44-22.05 120.17-23.63 122.89-25.2 126.29-25.2L126.29-25.2Q129.24-25.2 131.49-24.03 133.74-22.85 135.22-20.88 136.69-18.9 137.37-16.4 138.04-13.9 137.84-11.25L137.84-11.25 118.74-11.25Q118.84-8.15 120.12-6.35 121.39-4.55 123.14-3.83 124.89-3.1 126.39-3.1L126.39-3.1Q128.49-3.1 129.91-3.78 131.34-4.45 132.19-5.55L132.19-5.55 136.24-4.35Q134.89-2.2 132.39-0.8 129.89 0.6 126.39 0.6ZM118.79-14.6L118.79-14.6 133.39-14.6Q133.39-16.35 132.52-17.95 131.64-19.55 130.06-20.58 128.49-21.6 126.29-21.6L126.29-21.6Q124.44-21.6 122.79-20.9 121.14-20.2 120.06-18.65 118.99-17.1 118.79-14.6ZM147.79 0L143.09 0 143.09-33.4 164.79-33.4 164.79-29.35 147.79-29.35 147.79-19.2 164.79-19.2 164.79-15.15 147.79-15.15 147.79 0ZM177.89 0L176.04 0Q173.69 0 172.41-0.48 171.14-0.95 170.66-2.3 170.19-3.65 170.19-6.2L170.19-6.2 170.19-33.35 174.39-33.35 174.39-6.9Q174.39-5 174.79-4.35 175.19-3.7 176.94-3.7L176.94-3.7 177.89-3.7 177.89 0ZM192.43 0.6L192.43 0.6Q190.28 0.6 188.18-0.15 186.08-0.9 184.36-2.48 182.63-4.05 181.58-6.5 180.53-8.95 180.53-12.3L180.53-12.3Q180.53-15.65 181.58-18.1 182.63-20.55 184.36-22.13 186.08-23.7 188.18-24.45 190.28-25.2 192.43-25.2L192.43-25.2Q194.58-25.2 196.71-24.45 198.83-23.7 200.56-22.13 202.28-20.55 203.31-18.1 204.33-15.65 204.33-12.3L204.33-12.3Q204.33-8.95 203.31-6.5 202.28-4.05 200.56-2.48 198.83-0.9 196.71-0.15 194.58 0.6 192.43 0.6ZM192.43-3.1L192.43-3.1Q194.23-3.1 195.93-4.08 197.63-5.05 198.73-7.08 199.83-9.1 199.83-12.3L199.83-12.3Q199.83-15.5 198.73-17.53 197.63-19.55 195.93-20.53 194.23-21.5 192.43-21.5L192.43-21.5Q190.68-21.5 188.96-20.53 187.23-19.55 186.13-17.53 185.03-15.5 185.03-12.3L185.03-12.3Q185.03-9.1 186.13-7.08 187.23-5.05 188.96-4.08 190.68-3.1 192.43-3.1ZM217.18 0L213.38 0 206.23-24.8 210.73-24.8 215.48-6.45 220.43-24.8 224.78-24.8 229.68-6.45 234.43-24.8 238.93-24.8 231.83 0 227.98 0 222.58-19.95 217.18 0Z" fill="black"></path></g></svg></g></svg></g></svg></g></svg></g><g><svg viewBox="0 0 173.8203592156701 173.8203592156701" height="173.8203592156701" width="173.8203592156701"><g><svg></svg></g><g id="SvgjsG5543"><svg viewBox="0 0 173.8203592156701 173.8203592156701" height="173.8203592156701" width="173.8203592156701"><g><path d="M0 86.91c0-47.999 38.911-86.91 86.91-86.91 47.999 0 86.91 38.911 86.91 86.91 0 47.999-38.911 86.91-86.91 86.91-47.999 0-86.91-38.911-86.91-86.91zM86.91 167.298c44.397 0 80.388-35.991 80.388-80.388 0-44.397-35.991-80.388-80.388-80.388-44.397 0-80.388 35.991-80.388 80.388 0 44.397 35.991 80.388 80.388 80.388z" fill="black" stroke="transparent"></path></g><g transform="matrix(1,0,0,1,47.21540829736234,38.70938587368961)"><svg viewBox="0 0 79.38954262094542 96.40158746829087" height="96.40158746829087" width="79.38954262094542"><g><svg xmlns:dc="http://purl.org/dc/elements/1.1/" xmlns:cc="http://creativecommons.org/ns#" xmlns:rdf="http://www.w3.org/1999/02/22-rdf-syntax-ns#" xmlns:svg="http://www.w3.org/2000/svg" xmlns="http://www.w3.org/2000/svg" xmlns:sodipodi="http://sodipodi.sourceforge.net/DTD/sodipodi-0.dtd" xmlns:inkscape="http://www.inkscape.org/namespaces/inkscape" version="1.1" x="0" y="0" viewBox="7.5 5.25 21 25.5" height="96.40158746829087" width="79.38954262094542" class="icon-dxe-0" data-fill-palette-color="accent" id="SvgjsSvg5542"><g transform="translate(0,4)" fill="black"><path d="M7.5 5.25V12.25H10.5V23.75H7.5V30.75H14.5V23.75H11.5V12.25H14.5V9.25H22C22.933 9.25 23.588 9.452 23.969 9.719 24.349 9.985 24.5 10.288 24.5 10.75V22.375L23.344 21.219 22.656 21.906 24.5 23.75H21.5V30.75H28.5V23.75H25.5L27.344 21.906 26.656 21.22 25.5 22.375V10.75C25.5 10.01 25.15 9.308 24.531 8.875S23.067 8.25 22 8.25H14.5V5.25z" transform="translate(0,-4)" fill="black" fill-opacity="1" fill-rule="evenodd" stroke="none" marker="none" visibility="visible" display="inline" overflow="visible" color="url(#9ac7a3ae-6ebc-4398-a5e9-f4084477648a)" enable-background="accumulate"></path></g></svg></g></svg></g></svg></g></svg></g></svg></g><defs><mask></mask></defs></svg><rect width="395.52" height="113.91993142138648" fill="black" stroke="none" visibility="hidden"></rect></g></mask></svg><rect width="395.52" height="113.91993142138648" fill="black" stroke="none" visibility="hidden"></rect></g></mask><linearGradient x1="0" x2="1" y1="0.548" y2="0.55" id="9ac7a3ae-6ebc-4398-a5e9-f4084477648a"><stop stop-color="#ff6cab" offset="0"></stop><stop stop-color="#7366ff" offset="1"></stop></linearGradient><rect width="395.52" height="113.91993142138648" fill="#000000" mask="url(#0607a897-a6a2-4941-a16f-5754e0b964c7)" data-fill-palette-color="accent"></rect></svg><rect width="395.52" height="113.91993142138648" fill="none" stroke="none" visibility="hidden"></rect></g></svg></g></svg>